<svg width="48" height="32" viewBox="0 0 48 32" fill="none" xmlns="http://www.w3.org/2000/svg">
<rect width="48" height="32" rx="10" fill="#CED4DA"/>
<path fill-rule="evenodd" clip-rule="evenodd" d="M30.1977 15.897C30.75 15.897 31.1977 15.4493 31.1977 14.897V11.7534C31.1977 11.3373 31.535 11 31.9511 11C32.3671 11 32.7044 11.3373 32.7044 11.7534V16.4037C32.7044 16.956 32.2567 17.4037 31.7044 17.4037H23.5338C22.9815 17.4037 22.5338 17.8514 22.5338 18.4037V19.2679C22.5338 20.0377 21.7005 20.5189 21.0338 20.134L16.5 17.5164C15.8333 17.1315 15.8333 16.1692 16.5 15.7843L21.0338 13.1667C21.7005 12.7818 22.5338 13.263 22.5338 14.0328V14.897C22.5338 15.4493 22.9815 15.897 23.5338 15.897H30.1977Z" fill="#54595E"/>
</svg>
