<svg width="100" height="32" viewBox="0 0 100 32" fill="none" xmlns="http://www.w3.org/2000/svg">
<path d="M13.9199 27.5909V4.31818H29.6017V8.375H18.8404V13.9205H28.7949V17.9773H18.8404V23.5341H29.6472V27.5909H13.9199Z" fill="black"/>
<path d="M35.925 27.5909H30.6523L38.6864 4.31818H45.0273L53.05 27.5909H47.7773L41.9478 9.63636H41.7659L35.925 27.5909ZM35.5955 18.4432H48.05V22.2841H35.5955V18.4432Z" fill="black"/>
<path d="M66.3449 11.0114C66.254 10.0947 65.8639 9.38258 65.1745 8.875C64.4851 8.36742 63.5495 8.11364 62.3676 8.11364C61.5646 8.11364 60.8866 8.22727 60.3336 8.45455C59.7805 8.67424 59.3563 8.98106 59.0608 9.375C58.7729 9.76894 58.629 10.2159 58.629 10.7159C58.6139 11.1326 58.701 11.4962 58.8904 11.8068C59.0873 12.1174 59.3563 12.3864 59.6972 12.6136C60.0381 12.8333 60.432 13.0265 60.879 13.1932C61.326 13.3523 61.8033 13.4886 62.3108 13.6023L64.4017 14.1023C65.4169 14.3295 66.3487 14.6326 67.1972 15.0114C68.0457 15.3902 68.7805 15.8561 69.4017 16.4091C70.023 16.9621 70.504 17.6136 70.8449 18.3636C71.1934 19.1136 71.3714 19.9735 71.379 20.9432C71.3714 22.3674 71.0078 23.6023 70.2881 24.6477C69.576 25.6856 68.5457 26.4924 67.1972 27.0682C65.8563 27.6364 64.2389 27.9205 62.3449 27.9205C60.4661 27.9205 58.8298 27.6326 57.4358 27.0568C56.0495 26.4811 54.9661 25.6288 54.1858 24.5C53.4131 23.3636 53.0078 21.9583 52.9699 20.2841H57.7313C57.7843 21.0644 58.0078 21.7159 58.4017 22.2386C58.8033 22.7538 59.3373 23.1439 60.004 23.4091C60.6783 23.6667 61.4396 23.7955 62.2881 23.7955C63.1214 23.7955 63.8449 23.6742 64.4586 23.4318C65.0798 23.1894 65.5608 22.8523 65.9017 22.4205C66.2426 21.9886 66.4131 21.4924 66.4131 20.9318C66.4131 20.4091 66.2578 19.9697 65.9472 19.6136C65.6442 19.2576 65.1972 18.9545 64.6063 18.7045C64.023 18.4545 63.307 18.2273 62.4586 18.0227L59.9245 17.3864C57.9623 16.9091 56.4131 16.1629 55.2767 15.1477C54.1404 14.1326 53.576 12.7652 53.5836 11.0455C53.576 9.63636 53.951 8.4053 54.7086 7.35227C55.4737 6.29924 56.523 5.47727 57.8563 4.88636C59.1896 4.29545 60.7048 4 62.4017 4C64.129 4 65.6366 4.29545 66.9245 4.88636C68.2199 5.47727 69.2275 6.29924 69.9472 7.35227C70.6669 8.4053 71.0381 9.625 71.0608 11.0114H66.3449Z" fill="black"/>
<path d="M71.725 4.31818H77.2364L82.5432 14.3409H82.7705L88.0773 4.31818H93.5887L85.1 19.3636V27.5909H80.2137V19.3636L71.725 4.31818Z" fill="black"/>
<circle cx="9" cy="25" r="3" fill="#6F42C1"/>
</svg>
