<svg width="110" height="24" viewBox="0 0 110 24" fill="none" xmlns="http://www.w3.org/2000/svg">
<path d="M4.72727 23.5682C3.97727 23.5682 3.33333 23.303 2.79545 22.7727C2.26515 22.2348 2 21.5909 2 20.8409C2 20.0985 2.26515 19.4621 2.79545 18.9318C3.33333 18.4015 3.97727 18.1364 4.72727 18.1364C5.45455 18.1364 6.09091 18.4015 6.63636 18.9318C7.18182 19.4621 7.45455 20.0985 7.45455 20.8409C7.45455 21.3409 7.32576 21.7992 7.06818 22.2159C6.81818 22.625 6.48864 22.9545 6.07955 23.2045C5.67045 23.447 5.2197 23.5682 4.72727 23.5682Z" fill="#6F42C1"/>
<path d="M10.5199 23.2727V0H26.2017V4.05682H15.4403V9.60227H25.3949V13.6591H15.4403V19.2159H26.2472V23.2727H10.5199Z" fill="black"/>
<path d="M28.8636 23.2727V20.3523L40.4773 4.05682H28.8409V0H46.6591V2.92045L35.0341 19.2159H46.6818V23.2727H28.8636Z" fill="black"/>
<path d="M68.9233 0V23.2727H64.6733L54.5483 8.625H54.3778V23.2727H49.4574V0H53.7756L63.821 14.6364H64.0256V0H68.9233Z" fill="black"/>
<path d="M71.9886 23.2727V0H87.6705V4.05682H76.9091V9.60227H86.8636V13.6591H76.9091V19.2159H87.7159V23.2727H71.9886Z" fill="black"/>
<path d="M89.696 4.05682V0H108.81V4.05682H101.685V23.2727H96.821V4.05682H89.696Z" fill="black"/>
</svg>
