<svg width="27" height="27" viewBox="0 0 27 27" fill="none" xmlns="http://www.w3.org/2000/svg">
<path d="M25.3809 13.3893C25.3809 12.7799 25.2871 12.1237 25.1934 11.4205H14.1309V15.4518H20.7402C20.5996 16.1549 20.3184 16.858 19.9434 17.5143C19.3809 18.358 18.6777 19.0612 17.834 19.5299C16.7559 20.1862 15.5371 20.4674 14.1309 20.4674C12.8184 20.4674 11.5996 20.1393 10.5215 19.483C9.39648 18.8268 8.55273 17.9362 7.89648 16.8112C7.24023 15.6862 6.91211 14.4674 6.91211 13.108C6.91211 11.5612 7.33398 10.1549 8.17773 8.93616C8.92773 7.81116 9.95898 6.96741 11.2715 6.40491C12.5371 5.84241 13.8496 5.65491 15.1621 5.84241C16.5684 6.02991 17.7402 6.63928 18.7715 7.57678L21.9121 4.52991C19.7559 2.51428 17.1309 1.48303 14.1309 1.48303C12.0215 1.48303 10.0996 2.04553 8.31836 3.07678C6.53711 4.10803 5.08398 5.51428 4.05273 7.29553C3.02148 9.07678 2.50586 11.0455 2.50586 13.108C2.50586 15.2174 3.02148 17.1393 4.05273 18.9205C5.08398 20.7018 6.53711 22.1549 8.31836 23.1862C10.0996 24.2174 12.0215 24.733 14.1309 24.733C16.334 24.733 18.3027 24.2643 19.9902 23.2799C21.6777 22.3424 23.0371 20.983 23.9746 19.2487C24.9121 17.5612 25.3809 15.5924 25.3809 13.3893Z" fill="#6F42C1"/>
</svg>
