<svg width="284" height="63" viewBox="0 0 284 63" fill="none" xmlns="http://www.w3.org/2000/svg">
<path d="M7.72611 63C5.73893 63 4.03276 62.2912 2.60761 60.8737C1.20254 59.4359 0.5 57.7146 0.5 55.7097C0.5 53.7252 1.20254 52.0241 2.60761 50.6066C4.03276 49.189 5.73893 48.4802 7.72611 48.4802C9.65307 48.4802 11.3392 49.189 12.7844 50.6066C14.2296 52.0241 14.9522 53.7252 14.9522 55.7097C14.9522 57.0463 14.611 58.2715 13.9285 59.3852C13.2661 60.4788 12.393 61.3597 11.3091 62.028C10.2251 62.676 9.03082 63 7.72611 63Z" fill="#6F42C1"/>
<path d="M23.0741 62.2102V0H64.6242V10.8443H36.1112V25.6678H62.4865V36.5121H36.1112V51.366H64.7446V62.2102H23.0741Z" fill="white"/>
<path d="M71.6772 62.2102V54.4036L102.448 10.8443H71.617V0H118.828V7.80665L88.0262 51.366H118.888V62.2102H71.6772Z" fill="white"/>
<path d="M177.818 0V62.2102H166.557L139.731 23.0554H139.279V62.2102H126.242V0H137.683L164.299 39.1244H164.841V0H177.818Z" fill="white"/>
<path d="M185.94 62.2102V0H227.49V10.8443H198.977V25.6678H225.352V36.5121H198.977V51.366H227.611V62.2102H185.94Z" fill="white"/>
<path d="M232.857 10.8443V0H283.5V10.8443H264.622V62.2102H251.735V10.8443H232.857Z" fill="white"/>
</svg>
