<svg width="250" height="250" viewBox="0 0 250 250" fill="none" xmlns="http://www.w3.org/2000/svg">
<rect width="250" height="250" rx="125" fill="#F8F9FA"/>
<circle r="12.3429" transform="matrix(-1 0 0 1 124.6 110.343)" stroke="#ABB5BE" stroke-width="3"/>
<path d="M103 139.391C103 137.7 104.063 136.192 105.655 135.624L113.501 132.821C120.678 130.258 128.522 130.258 135.699 132.821L143.545 135.624C145.137 136.192 146.2 137.7 146.2 139.391V149.694C146.2 150.911 145.122 151.846 143.917 151.674L128.418 149.46C125.886 149.098 123.314 149.098 120.782 149.46L105.283 151.674C104.078 151.846 103 150.911 103 149.694V139.391Z" stroke="#ABB5BE" stroke-width="3"/>
</svg>
